<svg id="visual" viewBox="0 0 900 600" width="900" height="600" xmlns="http://www.w3.org/2000/svg" xmlns:xlink="http://www.w3.org/1999/xlink" version="1.1"><rect x="0" y="0" width="900" height="600" fill="#F8F8FF"></rect><path d="M304 0L312.8 25C321.7 50 339.3 100 349.2 150C359 200 361 250 399.3 300C437.7 350 512.3 400 506 450C499.7 500 412.3 550 368.7 575L325 600L0 600L0 575C0 550 0 500 0 450C0 400 0 350 0 300C0 250 0 200 0 150C0 100 0 50 0 25L0 0Z" fill="#E0EBFE" stroke-linecap="round" stroke-linejoin="miter"></path></svg>