<?xml version="1.0" encoding="UTF-8"?>
<!DOCTYPE svg PUBLIC "-//W3C//DTD SVG 1.1//EN" "http://www.w3.org/Graphics/SVG/1.1/DTD/svg11.dtd">
<svg xmlns="http://www.w3.org/2000/svg" version="1.1" width="595px" height="419px" style="shape-rendering:geometricPrecision; text-rendering:geometricPrecision; image-rendering:optimizeQuality; fill-rule:evenodd; clip-rule:evenodd" xmlns:xlink="http://www.w3.org/1999/xlink">
<g><path style="opacity:1" fill="#0173c2" d="M 436.5,156.5 C 437.986,170.125 438.986,183.792 439.5,197.5C 437.5,197.5 435.5,197.5 433.5,197.5C 431.631,196.835 429.631,196.169 427.5,195.5C 428.68,193.546 429.346,191.379 429.5,189C 428.167,180 426.833,171 425.5,162C 424.417,138.417 422.417,114.917 419.5,91.5C 419.386,88.6225 420.052,85.9558 421.5,83.5C 420.369,82.3961 419.535,82.7295 419,84.5C 418.691,83.2341 418.191,82.0674 417.5,81C 418.833,77.3333 418.833,73.6667 417.5,70C 420.688,68.6842 424.022,68.1842 427.5,68.5C 430.179,98.0151 433.179,127.348 436.5,156.5 Z"/></g>
<g><path style="opacity:1" fill="#048ad2" d="M 403.5,69.5 C 402.109,70.9854 399.776,71.8187 396.5,72C 397.833,73 397.833,74 396.5,75C 398.058,75.21 399.391,75.71 400.5,76.5C 396.444,75.979 392.444,75.479 388.5,75C 387.167,76.3333 387.167,77.6667 388.5,79C 390.518,79.5046 392.518,80.0046 394.5,80.5C 395.242,82.4258 396.242,84.2591 397.5,86C 397.167,86.3333 396.833,86.6667 396.5,87C 398.931,88.0924 398.931,89.2591 396.5,90.5C 384.544,97.2993 381.711,106.966 388,119.5C 391.854,124.878 397.021,127.212 403.5,126.5C 402.571,127.315 401.571,128.148 400.5,129C 401.43,132.883 401.096,136.717 399.5,140.5C 393.809,143.619 387.809,145.953 381.5,147.5C 381.611,146.883 381.944,146.383 382.5,146C 380.106,123.886 377.772,101.719 375.5,79.5C 375.532,77.2412 375.866,75.0745 376.5,73C 375.207,72.51 373.873,72.3433 372.5,72.5C 382.642,71.0048 392.975,70.0048 403.5,69.5 Z"/></g>
<g><path style="opacity:1" fill="#0096db" d="M 372.5,72.5 C 373.873,72.3433 375.207,72.51 376.5,73C 375.866,75.0745 375.532,77.2412 375.5,79.5C 377.772,101.719 380.106,123.886 382.5,146C 381.944,146.383 381.611,146.883 381.5,147.5C 372.088,149.573 362.755,149.906 353.5,148.5C 355.833,148.5 358.167,148.5 360.5,148.5C 357.648,123.913 355.648,99.2463 354.5,74.5C 356.735,74.7947 358.735,74.4614 360.5,73.5C 364.4,72.5701 368.4,72.2367 372.5,72.5 Z"/></g>
<g><path style="opacity:1" fill="#009fe3" d="M 354.5,74.5 C 355.648,99.2463 357.648,123.913 360.5,148.5C 358.167,148.5 355.833,148.5 353.5,148.5C 351.585,148.784 349.919,148.451 348.5,147.5C 349.473,147.013 350.473,146.513 351.5,146C 348.688,133.058 347.521,120.224 348,107.5C 347.329,108.252 346.496,108.586 345.5,108.5C 345.5,108.167 345.5,107.833 345.5,107.5C 346.772,99.0245 346.772,89.8579 345.5,80C 338.497,79.5034 338.163,78.8368 344.5,78C 340.148,77.5811 339.815,76.9145 343.5,76C 347.191,75.5804 350.858,75.0804 354.5,74.5 Z"/></g>
<g><path style="opacity:1" fill="#050911" d="M 400.5,76.5 C 405.244,78.4417 410.244,79.9417 415.5,81C 416.833,82.3333 416.833,83.6667 415.5,85C 408.527,83.6757 401.527,82.1757 394.5,80.5C 392.518,80.0046 390.518,79.5046 388.5,79C 387.167,77.6667 387.167,76.3333 388.5,75C 392.444,75.479 396.444,75.979 400.5,76.5 Z"/></g>
<g><path style="opacity:1" fill="#00adee" d="M 295.5,79.5 C 299.514,79.3345 303.514,79.5012 307.5,80C 308.186,83.0413 309.853,85.3746 312.5,87C 307.692,86.0693 307.359,86.9026 311.5,89.5C 310.306,90.2719 309.306,91.2719 308.5,92.5C 307.766,93.8775 307.099,95.3775 306.5,97C 307.833,97 309.167,97 310.5,97C 310.043,97.414 309.709,97.914 309.5,98.5C 310.422,105.133 311.255,111.8 312,118.5C 312.304,120.441 313.137,122.107 314.5,123.5C 313.147,124.524 312.48,125.857 312.5,127.5C 313.675,127.281 314.675,127.614 315.5,128.5C 314.32,130.454 313.654,132.621 313.5,135C 316.2,168.253 319.366,201.42 323,234.5C 323.318,236.061 324.151,237.228 325.5,238C 322.949,239.516 323.282,240.349 326.5,240.5C 324.334,243.838 323.001,247.505 322.5,251.5C 312.848,252.355 303.181,253.022 293.5,253.5C 288.523,196.488 283.356,139.488 278,82.5C 277.329,81.7476 276.496,81.4142 275.5,81.5C 281.947,80.064 288.614,79.3974 295.5,79.5 Z"/></g>
<g><path style="opacity:1" fill="#050c11" d="M 308.5,92.5 C 309.306,91.2719 310.306,90.2719 311.5,89.5C 318.048,87.2275 324.381,84.3942 330.5,81C 332.134,80.5065 333.801,80.3398 335.5,80.5C 335.548,83.2919 334.215,85.1253 331.5,86C 324.014,89.7473 316.347,92.914 308.5,95.5C 308.5,94.5 308.5,93.5 308.5,92.5 Z"/></g>
<g><path style="opacity:1" fill="#037bc6" d="M 436.5,148.5 C 436.5,151.167 436.5,153.833 436.5,156.5C 433.179,127.348 430.179,98.0151 427.5,68.5C 424.022,68.1842 420.688,68.6842 417.5,70C 418.833,73.6667 418.833,77.3333 417.5,81C 418.191,82.0674 418.691,83.2341 419,84.5C 419.535,82.7295 420.369,82.3961 421.5,83.5C 420.052,85.9558 419.386,88.6225 419.5,91.5C 422.417,114.917 424.417,138.417 425.5,162C 426.833,171 428.167,180 429.5,189C 429.346,191.379 428.68,193.546 427.5,195.5C 429.631,196.169 431.631,196.835 433.5,197.5C 425.809,197.403 418.142,197.737 410.5,198.5C 408.313,197.951 407.646,196.785 408.5,195C 406.008,176.95 404.174,158.783 403,140.5C 402.667,143.167 402.333,145.833 402,148.5C 401.617,147.944 401.117,147.611 400.5,147.5C 400.802,144.941 400.468,142.607 399.5,140.5C 401.096,136.717 401.43,132.883 400.5,129C 401.571,128.148 402.571,127.315 403.5,126.5C 413.121,121.926 416.954,114.259 415,103.5C 411.856,94.8462 405.689,90.5129 396.5,90.5C 398.931,89.2591 398.931,88.0924 396.5,87C 396.833,86.6667 397.167,86.3333 397.5,86C 396.242,84.2591 395.242,82.4258 394.5,80.5C 401.527,82.1757 408.527,83.6757 415.5,85C 416.833,83.6667 416.833,82.3333 415.5,81C 410.244,79.9417 405.244,78.4417 400.5,76.5C 399.391,75.71 398.058,75.21 396.5,75C 397.833,74 397.833,73 396.5,72C 399.776,71.8187 402.109,70.9854 403.5,69.5C 411.644,68.3217 419.978,67.6551 428.5,67.5C 431.407,94.4794 434.074,121.479 436.5,148.5 Z"/></g>
<g><path style="opacity:1" fill="#009ee2" d="M 273.5,81.5 C 274.167,81.5 274.833,81.5 275.5,81.5C 276.496,81.4142 277.329,81.7476 278,82.5C 283.356,139.488 288.523,196.488 293.5,253.5C 286.347,254.538 279.014,255.204 271.5,255.5C 270.778,255.082 270.278,254.416 270,253.5C 265.545,199.791 260.711,146.124 255.5,92.5C 255.667,90.1667 255.833,87.8333 256,85.5C 256.5,85 257,84.5 257.5,84C 262.167,83.6667 266.833,83.3333 271.5,83C 272.416,82.7216 273.082,82.2216 273.5,81.5 Z"/></g>
<g><path style="opacity:1" fill="#00a8ea" d="M 273.5,81.5 C 273.082,82.2216 272.416,82.7216 271.5,83C 266.833,83.3333 262.167,83.6667 257.5,84C 257,84.5 256.5,85 256,85.5C 255.833,87.8333 255.667,90.1667 255.5,92.5C 260.711,146.124 265.545,199.791 270,253.5C 270.278,254.416 270.778,255.082 271.5,255.5C 254.039,257.815 236.373,259.482 218.5,260.5C 217.048,259.698 215.382,259.198 213.5,259C 214.448,258.517 215.448,258.351 216.5,258.5C 213.473,227.111 210.307,195.778 207,164.5C 206.667,156.5 206.333,148.5 206,140.5C 204.185,123.931 202.018,107.431 199.5,91C 200.416,90.7216 201.082,90.2216 201.5,89.5C 205.078,89.4512 208.411,88.7846 211.5,87.5C 232.073,84.7298 252.739,82.7298 273.5,81.5 Z"/></g>
<g><path style="opacity:1" fill="#00acee" d="M 201.5,89.5 C 201.082,90.2216 200.416,90.7216 199.5,91C 202.018,107.431 204.185,123.931 206,140.5C 206.333,148.5 206.667,156.5 207,164.5C 210.307,195.778 213.473,227.111 216.5,258.5C 215.448,258.351 214.448,258.517 213.5,259C 215.382,259.198 217.048,259.698 218.5,260.5C 212.579,261.463 206.579,262.13 200.5,262.5C 197.786,260.764 194.786,259.93 191.5,260C 192.328,260.915 193.328,261.581 194.5,262C 190.812,261.833 187.145,261.166 183.5,260C 185.5,259.667 187.5,259.333 189.5,259C 188.552,258.517 187.552,258.351 186.5,258.5C 182.136,204.301 177.303,150.301 172,96.5C 170.745,95.7894 169.579,94.956 168.5,94C 170.594,92.6485 172.927,92.1485 175.5,92.5C 177.494,106.455 179.161,120.455 180.5,134.5C 181.118,126.535 181.118,118.535 180.5,110.5C 180.167,106.167 179.833,101.833 179.5,97.5C 177.717,95.9775 177.051,93.9775 177.5,91.5C 185.488,90.7232 193.488,90.0565 201.5,89.5 Z"/></g>
<g><path style="opacity:1" fill="#03afee" d="M 211.5,87.5 C 208.411,88.7846 205.078,89.4512 201.5,89.5C 193.488,90.0565 185.488,90.7232 177.5,91.5C 177.051,93.9775 177.717,95.9775 179.5,97.5C 179.833,101.833 180.167,106.167 180.5,110.5C 181.118,118.535 181.118,126.535 180.5,134.5C 179.161,120.455 177.494,106.455 175.5,92.5C 172.927,92.1485 170.594,92.6485 168.5,94C 169.579,94.956 170.745,95.7894 172,96.5C 177.303,150.301 182.136,204.301 186.5,258.5C 187.552,258.351 188.552,258.517 189.5,259C 187.5,259.333 185.5,259.667 183.5,260C 187.145,261.166 190.812,261.833 194.5,262C 193.328,261.581 192.328,260.915 191.5,260C 194.786,259.93 197.786,260.764 200.5,262.5C 190.475,263.28 180.475,264.28 170.5,265.5C 170.403,261.651 170.069,257.817 169.5,254C 169.569,252.014 170.235,250.514 171.5,249.5C 176.598,248.574 178.765,245.574 178,240.5C 177.5,238.667 176.333,237.5 174.5,237C 171.854,236.503 169.187,236.336 166.5,236.5C 166.789,232.894 166.456,229.394 165.5,226C 161.147,225.755 156.813,225.755 152.5,226C 144.5,221.333 144.5,216.667 152.5,212C 157.53,211.552 162.53,210.886 167.5,210C 172.802,205.627 172.802,201.294 167.5,197C 154.121,196.837 140.788,197.671 127.5,199.5C 119.39,198.904 116.89,194.904 120,187.5C 121.648,186.283 123.481,185.45 125.5,185C 139.236,183.717 152.902,182.051 166.5,180C 171.112,174.396 170.112,170.063 163.5,167C 156.527,167.53 149.527,167.863 142.5,168C 135.833,163.333 135.833,158.667 142.5,154C 148.397,153.85 154.063,152.85 159.5,151C 157.141,131.579 155.141,112.079 153.5,92.5C 172.808,90.5932 192.141,88.9266 211.5,87.5 Z"/></g>
<g><path style="opacity:1" fill="#eef1f3" d="M 396.5,90.5 C 405.689,90.5129 411.856,94.8462 415,103.5C 416.954,114.259 413.121,121.926 403.5,126.5C 397.021,127.212 391.854,124.878 388,119.5C 381.711,106.966 384.544,97.2993 396.5,90.5 Z"/></g>
<g><path style="opacity:1" fill="#1a1a1a" d="M 397.5,98.5 C 407.002,99.1817 410.502,104.182 408,113.5C 402.485,120.368 397.485,120.035 393,112.5C 392.333,110.167 392.333,107.833 393,105.5C 394.938,106.86 396.604,106.527 398,104.5C 398.49,102.455 398.323,100.455 397.5,98.5 Z"/></g>
<g><path style="opacity:1" fill="#d6d6d6" d="M 401.5,111.5 C 402.833,111.5 404.167,111.5 405.5,111.5C 405.5,112.5 405.5,113.5 405.5,114.5C 404.167,114.5 402.833,114.5 401.5,114.5C 401.5,113.5 401.5,112.5 401.5,111.5 Z"/></g>
<g><path style="opacity:1" fill="#05a8e9" d="M 360.5,73.5 C 358.735,74.4614 356.735,74.7947 354.5,74.5C 350.858,75.0804 347.191,75.5804 343.5,76C 339.815,76.9145 340.148,77.5811 344.5,78C 338.163,78.8368 338.497,79.5034 345.5,80C 346.772,89.8579 346.772,99.0245 345.5,107.5C 341.55,99.745 335.217,96.5784 326.5,98C 319.219,101.055 315.886,106.555 316.5,114.5C 316.081,121.496 318.748,126.996 324.5,131C 338.176,134.489 345.51,129.156 346.5,115C 346.434,112.745 346.101,110.578 345.5,108.5C 346.496,108.586 347.329,108.252 348,107.5C 347.521,120.224 348.688,133.058 351.5,146C 350.473,146.513 349.473,147.013 348.5,147.5C 345.833,147.167 343.167,146.833 340.5,146.5C 340.528,149.916 341.528,152.916 343.5,155.5C 343.66,157.153 344.326,158.486 345.5,159.5C 345.427,161.027 346.094,162.027 347.5,162.5C 348.604,164.389 349.937,166.055 351.5,167.5C 351.343,168.873 351.51,170.207 352,171.5C 352.718,170.549 353.551,170.383 354.5,171C 353.859,173.578 353.525,176.245 353.5,179C 355.128,193.85 356.628,208.683 358,223.5C 359.302,224.085 360.469,224.751 361.5,225.5C 347.008,224.253 335.342,229.253 326.5,240.5C 323.282,240.349 322.949,239.516 325.5,238C 324.151,237.228 323.318,236.061 323,234.5C 319.366,201.42 316.2,168.253 313.5,135C 313.654,132.621 314.32,130.454 315.5,128.5C 314.675,127.614 313.675,127.281 312.5,127.5C 312.48,125.857 313.147,124.524 314.5,123.5C 313.137,122.107 312.304,120.441 312,118.5C 311.255,111.8 310.422,105.133 309.5,98.5C 309.709,97.914 310.043,97.414 310.5,97C 309.167,97 307.833,97 306.5,97C 307.099,95.3775 307.766,93.8775 308.5,92.5C 308.5,93.5 308.5,94.5 308.5,95.5C 316.347,92.914 324.014,89.7473 331.5,86C 334.215,85.1253 335.548,83.2919 335.5,80.5C 333.801,80.3398 332.134,80.5065 330.5,81C 324.381,84.3942 318.048,87.2275 311.5,89.5C 307.359,86.9026 307.692,86.0693 312.5,87C 309.853,85.3746 308.186,83.0413 307.5,80C 303.514,79.5012 299.514,79.3345 295.5,79.5C 316.979,77.032 338.645,75.032 360.5,73.5 Z"/></g>
<g><path style="opacity:1" fill="#f2f5f6" d="M 345.5,107.5 C 345.5,107.833 345.5,108.167 345.5,108.5C 346.101,110.578 346.434,112.745 346.5,115C 345.51,129.156 338.176,134.489 324.5,131C 318.748,126.996 316.081,121.496 316.5,114.5C 315.886,106.555 319.219,101.055 326.5,98C 335.217,96.5784 341.55,99.745 345.5,107.5 Z"/></g>
<g><path style="opacity:1" fill="#1e1e1e" d="M 329.5,105.5 C 336.303,105.3 339.969,108.633 340.5,115.5C 338.881,125.063 334.047,127.396 326,122.5C 324.069,119.386 323.402,116.053 324,112.5C 329.904,113.747 331.737,111.413 329.5,105.5 Z"/></g>
<g><path style="opacity:1" fill="#f4f4f4" d="M 333.5,118.5 C 334.5,118.5 335.5,118.5 336.5,118.5C 336.5,119.5 336.5,120.5 336.5,121.5C 335.5,121.5 334.5,121.5 333.5,121.5C 333.5,120.5 333.5,119.5 333.5,118.5 Z"/></g>
<g><path style="opacity:1" fill="#05aeec" d="M 139.5,126.5 C 146.103,124.964 150.437,127.297 152.5,133.5C 151.326,138.505 148.16,141.172 143,141.5C 136.576,140.413 134.243,136.746 136,130.5C 137.102,129.051 138.269,127.718 139.5,126.5 Z"/></g>
<g><path style="opacity:0.997" fill="#daf6f7" d="M 436.5,148.5 C 452.683,151.354 461.683,161.02 463.5,177.5C 491.045,187.226 502.545,206.559 498,235.5C 495.219,243.725 490.886,251.058 485,257.5C 479.302,286.031 462.135,303.031 433.5,308.5C 410.509,344.144 378.509,355.977 337.5,344C 331.624,341.812 326.124,338.979 321,335.5C 302.515,347.374 282.682,350.207 261.5,344C 253.533,340.689 246.7,335.855 241,329.5C 229.117,335.618 216.617,337.118 203.5,334C 198.803,331.732 193.969,329.898 189,328.5C 182.172,329.485 175.339,329.985 168.5,330C 162.84,326.378 162.174,322.044 166.5,317C 170.863,316.106 175.196,315.106 179.5,314C 183.5,310.667 183.5,307.333 179.5,304C 172.482,303.325 165.482,303.491 158.5,304.5C 148.693,303.763 140.693,299.597 134.5,292C 128.26,291.867 122.093,292.367 116,293.5C 108.549,291.817 106.549,287.484 110,280.5C 110.75,279.874 111.584,279.374 112.5,279C 122.081,277.214 131.747,276.214 141.5,276C 148.12,273.853 149.12,270.186 144.5,265C 138.639,264.28 132.806,264.446 127,265.5C 118.822,263.795 116.989,259.461 121.5,252.5C 122.5,252 123.5,251.5 124.5,251C 134.481,249.82 144.481,248.82 154.5,248C 153.775,239.225 157.775,235.392 166.5,236.5C 173.113,237.199 175.28,240.866 173,247.5C 172.283,248.044 171.783,248.711 171.5,249.5C 170.235,250.514 169.569,252.014 169.5,254C 170.069,257.817 170.403,261.651 170.5,265.5C 180.475,264.28 190.475,263.28 200.5,262.5C 206.579,262.13 212.579,261.463 218.5,260.5C 236.373,259.482 254.039,257.815 271.5,255.5C 279.014,255.204 286.347,254.538 293.5,253.5C 303.181,253.022 312.848,252.355 322.5,251.5C 323.001,247.505 324.334,243.838 326.5,240.5C 335.342,229.253 347.008,224.253 361.5,225.5C 365.163,226.341 368.83,226.841 372.5,227C 375.123,223.588 377.623,220.088 380,216.5C 383.528,213.831 386.695,210.831 389.5,207.5C 396.2,203.646 403.2,200.646 410.5,198.5C 418.142,197.737 425.809,197.403 433.5,197.5C 435.5,197.5 437.5,197.5 439.5,197.5C 438.986,183.792 437.986,170.125 436.5,156.5C 436.5,153.833 436.5,151.167 436.5,148.5 Z"/></g>
<g><path style="opacity:1" fill="#1e0c0e" d="M 399.5,140.5 C 400.468,142.607 400.802,144.941 400.5,147.5C 400.405,149.786 399.738,151.786 398.5,153.5C 398.5,153.167 398.5,152.833 398.5,152.5C 395.686,151.835 392.686,151.502 389.5,151.5C 379.835,152.033 370.168,152.533 360.5,153C 354.586,153.123 348.919,153.956 343.5,155.5C 341.528,152.916 340.528,149.916 340.5,146.5C 343.167,146.833 345.833,147.167 348.5,147.5C 349.919,148.451 351.585,148.784 353.5,148.5C 362.755,149.906 372.088,149.573 381.5,147.5C 387.809,145.953 393.809,143.619 399.5,140.5 Z"/></g>
<g><path style="opacity:1" fill="#2f0a0a" d="M 398.5,152.5 C 381.814,153.719 365.148,155.219 348.5,157C 347.058,157.377 346.058,158.21 345.5,159.5C 344.326,158.486 343.66,157.153 343.5,155.5C 348.919,153.956 354.586,153.123 360.5,153C 370.168,152.533 379.835,152.033 389.5,151.5C 392.686,151.502 395.686,151.835 398.5,152.5 Z"/></g>
<g><path style="opacity:1" fill="#48090a" d="M 398.5,152.5 C 398.5,152.833 398.5,153.167 398.5,153.5C 398.065,156.157 397.065,158.491 395.5,160.5C 395.5,159.5 395.5,158.5 395.5,157.5C 379.106,156.936 363.106,158.603 347.5,162.5C 346.094,162.027 345.427,161.027 345.5,159.5C 346.058,158.21 347.058,157.377 348.5,157C 365.148,155.219 381.814,153.719 398.5,152.5 Z"/></g>
<g><path style="opacity:1" fill="#06afed" d="M 118.5,155.5 C 129.017,155.404 132.017,159.904 127.5,169C 120.217,170.363 112.883,171.529 105.5,172.5C 99.7477,171 97.581,167.333 99,161.5C 100.167,160.333 101.333,159.167 102.5,158C 107.988,157.226 113.321,156.393 118.5,155.5 Z"/></g>
<g><path style="opacity:1" fill="#640707" d="M 395.5,160.5 C 394.974,162.23 393.974,163.564 392.5,164.5C 391.486,163.235 389.986,162.569 388,162.5C 379.158,163.031 370.325,163.697 361.5,164.5C 357.737,164.896 354.403,165.896 351.5,167.5C 349.937,166.055 348.604,164.389 347.5,162.5C 363.106,158.603 379.106,156.936 395.5,157.5C 395.5,158.5 395.5,159.5 395.5,160.5 Z"/></g>
<g><path style="opacity:1" fill="#8a0506" d="M 392.5,164.5 C 389.532,167.647 386.198,170.314 382.5,172.5C 381.5,172.5 380.5,172.5 379.5,172.5C 380.574,170.716 382.24,169.549 384.5,169C 382.804,167.734 380.971,167.9 379,169.5C 373.521,168.952 368.021,169.452 362.5,171C 361.402,171.77 361.402,172.603 362.5,173.5C 358.38,172.274 354.713,170.274 351.5,167.5C 354.403,165.896 357.737,164.896 361.5,164.5C 370.325,163.697 379.158,163.031 388,162.5C 389.986,162.569 391.486,163.235 392.5,164.5 Z"/></g>
<g><path style="opacity:1" fill="#a90406" d="M 379.5,172.5 C 374.057,174.655 368.391,174.988 362.5,173.5C 361.402,172.603 361.402,171.77 362.5,171C 368.021,169.452 373.521,168.952 379,169.5C 380.971,167.9 382.804,167.734 384.5,169C 382.24,169.549 380.574,170.716 379.5,172.5 Z"/></g>
<g><path style="opacity:1" fill="#0389d2" d="M 410.5,198.5 C 403.2,200.646 396.2,203.646 389.5,207.5C 388.653,206.034 387.32,205.2 385.5,205C 386.308,204.692 386.975,204.192 387.5,203.5C 386.728,193.999 385.728,184.499 384.5,175C 384.316,173.624 383.649,172.791 382.5,172.5C 386.198,170.314 389.532,167.647 392.5,164.5C 393.974,163.564 394.974,162.23 395.5,160.5C 397.065,158.491 398.065,156.157 398.5,153.5C 399.738,151.786 400.405,149.786 400.5,147.5C 401.117,147.611 401.617,147.944 402,148.5C 402.333,145.833 402.667,143.167 403,140.5C 404.174,158.783 406.008,176.95 408.5,195C 407.646,196.785 408.313,197.951 410.5,198.5 Z"/></g>
<g><path style="opacity:1" fill="#0599dd" d="M 351.5,167.5 C 354.713,170.274 358.38,172.274 362.5,173.5C 368.391,174.988 374.057,174.655 379.5,172.5C 380.5,172.5 381.5,172.5 382.5,172.5C 383.649,172.791 384.316,173.624 384.5,175C 385.728,184.499 386.728,193.999 387.5,203.5C 386.975,204.192 386.308,204.692 385.5,205C 387.32,205.2 388.653,206.034 389.5,207.5C 386.695,210.831 383.528,213.831 380,216.5C 377.623,220.088 375.123,223.588 372.5,227C 368.83,226.841 365.163,226.341 361.5,225.5C 360.469,224.751 359.302,224.085 358,223.5C 356.628,208.683 355.128,193.85 353.5,179C 353.525,176.245 353.859,173.578 354.5,171C 353.551,170.383 352.718,170.549 352,171.5C 351.51,170.207 351.343,168.873 351.5,167.5 Z"/></g>
<g><path style="opacity:0.075" fill="#51d2f0" d="M 166.5,236.5 C 169.187,236.336 171.854,236.503 174.5,237C 176.333,237.5 177.5,238.667 178,240.5C 178.765,245.574 176.598,248.574 171.5,249.5C 171.783,248.711 172.283,248.044 173,247.5C 175.28,240.866 173.113,237.199 166.5,236.5 Z"/></g>
<g><path style="opacity:0.952" fill="#dbf6f7" d="M 100.5,253.5 C 109.708,251.887 113.875,255.554 113,264.5C 112.167,265.333 111.333,266.167 110.5,267C 106.433,268.198 102.267,269.031 98,269.5C 88.5756,266.514 87.409,261.681 94.5,255C 96.7078,254.809 98.7078,254.309 100.5,253.5 Z"/></g>
</svg>
