<svg id="visual" viewBox="0 0 450 900" width="450" height="900" xmlns="http://www.w3.org/2000/svg" xmlns:xlink="http://www.w3.org/1999/xlink" version="1.1"><rect width="450" height="900" fill="#67A2FA"></rect><g><g transform="translate(393 685)"><path d="M0 -54.4L42.5 -33.9L53 12.1L23.6 49L-23.6 49L-53 12.1L-42.5 -33.9Z" fill="#fff"></path></g><g transform="translate(56 188)"><path d="M0 -31L24.2 -19.3L30.2 6.9L13.5 27.9L-13.5 27.9L-30.2 6.9L-24.2 -19.3Z" fill="#fff"></path></g><g transform="translate(271 335)"><path d="M0 -42L32.8 -26.2L40.9 9.3L18.2 37.8L-18.2 37.8L-40.9 9.3L-32.8 -26.2Z" fill="#fff"></path></g><g transform="translate(267 866)"><path d="M0 -36L28.1 -22.4L35.1 8L15.6 32.4L-15.6 32.4L-35.1 8L-28.1 -22.4Z" fill="#fff"></path></g><g transform="translate(254 734)"><path d="M0 -29L22.7 -18.1L28.3 6.5L12.6 26.1L-12.6 26.1L-28.3 6.5L-22.7 -18.1Z" fill="#fff"></path></g><g transform="translate(366 184)"><path d="M0 -49L38.3 -30.6L47.8 10.9L21.3 44.1L-21.3 44.1L-47.8 10.9L-38.3 -30.6Z" fill="#fff"></path></g><g transform="translate(240 503)"><path d="M0 -52L40.7 -32.4L50.7 11.6L22.6 46.9L-22.6 46.9L-50.7 11.6L-40.7 -32.4Z" fill="#fff"></path></g><g transform="translate(49 540)"><path d="M0 -29L22.7 -18.1L28.3 6.5L12.6 26.1L-12.6 26.1L-28.3 6.5L-22.7 -18.1Z" fill="#fff"></path></g><g transform="translate(42 829)"><path d="M0 -39L30.5 -24.3L38 8.7L16.9 35.1L-16.9 35.1L-38 8.7L-30.5 -24.3Z" fill="#fff"></path></g><g transform="translate(259 1)"><path d="M0 -35L27.4 -21.8L34.1 7.8L15.2 31.5L-15.2 31.5L-34.1 7.8L-27.4 -21.8Z" fill="#fff"></path></g><g transform="translate(103 72)"><path d="M0 -31L24.2 -19.3L30.2 6.9L13.5 27.9L-13.5 27.9L-30.2 6.9L-24.2 -19.3Z" fill="#fff"></path></g><g transform="translate(373 462)"><path d="M0 -47L36.7 -29.3L45.8 10.5L20.4 42.3L-20.4 42.3L-45.8 10.5L-36.7 -29.3Z" fill="#fff"></path></g><g transform="translate(47 359)"><path d="M0 -39L30.5 -24.3L38 8.7L16.9 35.1L-16.9 35.1L-38 8.7L-30.5 -24.3Z" fill="#fff"></path></g><g transform="translate(126 461)"><path d="M0 -38L29.7 -23.7L37 8.5L16.5 34.2L-16.5 34.2L-37 8.5L-29.7 -23.7Z" fill="#fff"></path></g><g transform="translate(302 620)"><path d="M0 -33L25.8 -20.6L32.2 7.3L14.3 29.7L-14.3 29.7L-32.2 7.3L-25.8 -20.6Z" fill="#fff"></path></g><g transform="translate(402 1)"><path d="M0 -32L25 -20L31.2 7.1L13.9 28.8L-13.9 28.8L-31.2 7.1L-25 -20Z" fill="#fff"></path></g><g transform="translate(93 641)"><path d="M0 -35L27.4 -21.8L34.1 7.8L15.2 31.5L-15.2 31.5L-34.1 7.8L-27.4 -21.8Z" fill="#fff"></path></g><g transform="translate(158 261)"><path d="M0 -47L36.7 -29.3L45.8 10.5L20.4 42.3L-20.4 42.3L-45.8 10.5L-36.7 -29.3Z" fill="#fff"></path></g><g transform="translate(250 158)"><path d="M0 -49L38.3 -30.6L47.8 10.9L21.3 44.1L-21.3 44.1L-47.8 10.9L-38.3 -30.6Z" fill="#fff"></path></g><g transform="translate(388 818)"><path d="M0 -42L32.8 -26.2L40.9 9.3L18.2 37.8L-18.2 37.8L-40.9 9.3L-32.8 -26.2Z" fill="#fff "></path></g></g></svg>
