<svg xmlns="http://www.w3.org/2000/svg" width="595" height="419" viewBox="0 0 595 419" version="1.1"><path d="M 352 74.533 C 314.875 77.988, 272.125 81.998, 257 83.444 C 241.875 84.889, 212.649 87.644, 192.054 89.566 C 171.458 91.487, 154.539 93.159, 154.456 93.280 C 154.373 93.401, 155.533 106.775, 157.033 123 C 158.534 139.225, 159.676 152.601, 159.572 152.725 C 159.468 152.849, 156.034 153.252, 151.941 153.620 C 142.428 154.476, 140.201 155.340, 138.937 158.666 C 137.609 162.159, 139.444 166.838, 142.615 168.044 C 143.958 168.554, 148.491 168.513, 153.482 167.946 C 163.245 166.837, 166.426 167.342, 168.523 170.337 C 170.652 173.375, 170.343 176.748, 167.694 179.397 C 165.875 181.215, 163.813 181.848, 157.944 182.388 C 138.241 184.201, 123.689 186.176, 121.900 187.281 C 117.716 189.865, 118.618 197.144, 123.345 198.941 C 124.860 199.517, 132.869 199.176, 145.560 197.994 C 166.306 196.063, 167.612 196.181, 170.449 200.230 C 172.586 203.282, 172.394 205.430, 169.705 208.557 C 167.734 210.849, 166.317 211.333, 159.677 211.983 C 150.726 212.859, 148 214.614, 148 219.500 C 148 224.703, 150.578 226.181, 159.156 225.898 C 166.263 225.663, 166.509 225.733, 166.770 228.077 C 167.697 236.411, 167.945 236.899, 171.595 237.584 C 173.666 237.972, 175.742 239.203, 176.641 240.575 C 178.029 242.693, 178.001 243.191, 176.334 246.025 C 175.291 247.799, 173.405 249.363, 171.961 249.654 C 169.432 250.164, 169.424 250.198, 170.139 257.678 C 170.533 261.809, 171.044 265.377, 171.274 265.607 C 171.673 266.006, 244.749 259.566, 252 258.493 C 255.261 258.010, 320.018 252, 321.960 252 C 322.445 252, 323.132 250.676, 323.487 249.058 C 324.282 245.439, 329.052 238.592, 333.798 234.257 C 341.076 227.608, 358.094 224.156, 368.140 227.290 L 372.779 228.738 375.070 224.662 C 378.963 217.734, 389.329 208.391, 397.306 204.620 C 407.472 199.813, 413.679 198.596, 428.293 198.545 L 441.085 198.500 440.572 195 C 440.290 193.075, 439.350 182.950, 438.485 172.500 C 434.863 128.772, 430.908 84.923, 429.849 76.750 L 428.716 68 424.108 68.126 C 421.574 68.195, 389.125 71.078, 352 74.533 M 394.424 93.019 C 387.077 96.656, 383.573 106.189, 386.427 114.779 C 389.944 125.369, 400.120 130.046, 408.102 124.742 C 412.206 122.015, 416.016 114.882, 415.956 110.038 C 415.901 105.631, 413.777 99.527, 411.345 96.793 C 409.366 94.567, 402.465 91.058, 400 91.023 C 399.175 91.011, 396.666 91.910, 394.424 93.019 M 324.241 99.995 C 314.466 105.954, 313.608 119.872, 322.470 128.733 C 326.298 132.561, 327.227 133, 331.500 133 C 340.533 133, 346.927 126.088, 346.978 116.270 C 347.048 102.757, 334.474 93.756, 324.241 99.995 M 398.593 101.513 C 399.373 104.620, 397.437 107.176, 394.597 106.787 C 391.209 106.323, 392.174 112.733, 396.022 116.250 C 399.834 119.733, 402.165 119.718, 406.121 116.184 C 408.718 113.863, 409.273 112.621, 409.273 109.131 C 409.273 103.853, 405.211 99, 400.794 99 C 398.269 99, 398.030 99.272, 398.593 101.513 M 330 108 C 331.610 111.008, 329.530 114.334, 326.411 113.738 C 324.360 113.346, 324.001 113.667, 324.004 115.889 C 324.006 117.325, 324.892 119.950, 325.973 121.723 C 329.502 127.511, 336.342 127.107, 339.540 120.922 C 342.809 114.601, 338.469 106, 332.010 106 C 329.240 106, 329.037 106.201, 330 108 M 402.543 112.931 C 401.803 114.128, 403.684 115.313, 405.016 114.490 C 406.135 113.799, 405.400 112, 404 112 C 403.515 112, 402.859 112.419, 402.543 112.931 M 334 120.500 C 334 121.325, 334.675 122, 335.500 122 C 336.325 122, 337 121.325, 337 120.500 C 337 119.675, 336.325 119, 335.500 119 C 334.675 119, 334 119.675, 334 120.500 M 138.635 129.073 C 135.603 131.458, 135.168 135.368, 137.557 138.777 C 138.797 140.548, 140.087 141, 143.902 141 C 149.580 141, 152.333 138.659, 152.333 133.831 C 152.333 127.629, 144.104 124.770, 138.635 129.073 M 113 157.192 C 104.720 157.968, 103.211 158.406, 101.250 160.597 C 98.418 163.762, 98.386 166.964, 101.156 169.937 C 103.235 172.169, 103.695 172.228, 113.906 171.579 C 125.950 170.813, 129.300 169.284, 129.800 164.324 C 130.137 160.987, 127.648 157.424, 124.500 156.737 C 123.400 156.497, 118.225 156.702, 113 157.192" stroke="none" fill="#04a3e5" fill-rule="evenodd"/><path d="M 394.424 93.019 C 387.077 96.656, 383.573 106.189, 386.427 114.779 C 389.944 125.369, 400.120 130.046, 408.102 124.742 C 412.206 122.015, 416.016 114.882, 415.956 110.038 C 415.901 105.631, 413.777 99.527, 411.345 96.793 C 409.366 94.567, 402.465 91.058, 400 91.023 C 399.175 91.011, 396.666 91.910, 394.424 93.019 M 324.241 99.995 C 314.466 105.954, 313.608 119.872, 322.470 128.733 C 326.298 132.561, 327.227 133, 331.500 133 C 340.533 133, 346.927 126.088, 346.978 116.270 C 347.048 102.757, 334.474 93.756, 324.241 99.995 M 398.593 101.513 C 399.373 104.620, 397.437 107.176, 394.597 106.787 C 391.209 106.323, 392.174 112.733, 396.022 116.250 C 399.834 119.733, 402.165 119.718, 406.121 116.184 C 408.718 113.863, 409.273 112.621, 409.273 109.131 C 409.273 103.853, 405.211 99, 400.794 99 C 398.269 99, 398.030 99.272, 398.593 101.513 M 330 108 C 331.610 111.008, 329.530 114.334, 326.411 113.738 C 324.360 113.346, 324.001 113.667, 324.004 115.889 C 324.006 117.325, 324.892 119.950, 325.973 121.723 C 329.502 127.511, 336.342 127.107, 339.540 120.922 C 342.809 114.601, 338.469 106, 332.010 106 C 329.240 106, 329.037 106.201, 330 108 M 402.543 112.931 C 401.803 114.128, 403.684 115.313, 405.016 114.490 C 406.135 113.799, 405.400 112, 404 112 C 403.515 112, 402.859 112.419, 402.543 112.931 M 334 120.500 C 334 121.325, 334.675 122, 335.500 122 C 336.325 122, 337 121.325, 337 120.500 C 337 119.675, 336.325 119, 335.500 119 C 334.675 119, 334 119.675, 334 120.500 M 437.003 153.250 C 437.007 157.177, 439.253 183.579, 440.471 194 L 440.996 198.500 428.248 198.545 C 413.679 198.596, 407.466 199.816, 397.306 204.620 C 389.329 208.391, 378.963 217.734, 375.070 224.662 L 372.779 228.738 368.140 227.290 C 358.094 224.156, 341.076 227.608, 333.798 234.257 C 329.052 238.592, 324.282 245.439, 323.487 249.058 C 323.132 250.676, 322.445 252, 321.960 252 C 320.018 252, 255.261 258.010, 252 258.493 C 244.749 259.566, 171.673 266.006, 171.274 265.607 C 171.044 265.377, 170.533 261.809, 170.139 257.678 L 169.421 250.166 172.211 249.608 C 174.709 249.108, 175 248.630, 175 245.025 C 175 238.729, 172.295 236.666, 164.754 237.211 C 157.812 237.714, 156 239.325, 156 244.996 L 156 248.610 140.019 250.133 C 122.206 251.830, 120 252.752, 120 258.500 C 120 264.025, 122.296 265.085, 133.914 264.922 C 145.087 264.765, 148 265.951, 148 270.655 C 148 275.597, 145.490 276.563, 129.444 277.802 C 117.696 278.709, 114.006 279.350, 112.020 280.825 C 108.605 283.363, 108.163 288.163, 111.075 291.075 C 113.153 293.153, 113.825 293.232, 123.909 292.594 L 134.550 291.921 137.494 294.994 C 144.802 302.622, 153.276 305.110, 167.500 303.806 C 178.223 302.822, 180.711 303.271, 182.161 306.454 C 184.314 311.180, 180.813 315.987, 175.203 316.006 C 167.838 316.030, 163.073 320.172, 164.388 325.408 C 165.529 329.957, 169.121 330.887, 181.107 329.733 C 191.526 328.731, 191.810 328.760, 197.107 331.348 C 208.328 336.829, 222.887 337.299, 235.388 332.584 L 242.277 329.985 246.903 334.313 C 252.467 339.517, 258.593 343.140, 266 345.605 C 272.891 347.899, 290.954 347.896, 299.920 345.599 C 305.354 344.207, 314.865 339.862, 319.130 336.823 C 320.452 335.881, 322.711 336.633, 331.130 340.821 C 344.625 347.534, 353.979 349.448, 369.942 348.762 C 383.022 348.199, 392.568 345.535, 403.937 339.275 C 411.512 335.104, 427.134 320.044, 431.349 312.850 C 433.961 308.391, 434.363 308.135, 441.167 306.598 C 462.604 301.757, 478.332 286.176, 483.648 264.514 C 484.914 259.352, 486.431 256.215, 489.455 252.502 C 494.519 246.285, 497.863 238.678, 499.273 230.172 C 502.623 209.953, 489.154 187.713, 469.056 180.278 C 463.652 178.280, 463.603 178.223, 462.531 172.854 C 461.187 166.126, 457.027 158.885, 452.537 155.460 C 449.368 153.043, 440.263 149, 437.989 149 C 437.445 149, 437.002 150.912, 437.003 153.250 M 99.286 254.894 C 93.817 255.842, 91 258.428, 91 262.500 C 91 267.851, 93.621 269.288, 102.561 268.837 C 109.118 268.506, 110.489 268.115, 112.109 266.114 C 114.471 263.196, 114.524 259.862, 112.250 257.080 C 110.245 254.627, 105.470 253.822, 99.286 254.894" stroke="none" fill="#dbf2f9" fill-rule="evenodd"/></svg>